<svg xmlns="http://www.w3.org/2000/svg" xmlns:xlink="http://www.w3.org/1999/xlink" width="195" height="57" viewBox="0 0 195 57"><defs><clipPath id="b"><rect width="195" height="57"/></clipPath></defs><g id="a" clip-path="url(#b)"><path d="M15.93.378A13.793,13.793,0,0,1,8.694-1.566,14.6,14.6,0,0,1,3.537-6.777,14.187,14.187,0,0,1,1.62-14.094a14.187,14.187,0,0,1,1.917-7.317A14.251,14.251,0,0,1,8.748-26.6a14.436,14.436,0,0,1,7.4-1.917,14.39,14.39,0,0,1,4.05.567A13.724,13.724,0,0,1,23.814-26.3V-37.8l7.4-1.242V0h-7.29V-2.322A12.616,12.616,0,0,1,15.93.378ZM17.118-5.94a10.09,10.09,0,0,0,3.753-.675A7.919,7.919,0,0,0,23.814-8.64V-19.6a8.862,8.862,0,0,0-2.97-1.944,9.8,9.8,0,0,0-3.726-.7A8.355,8.355,0,0,0,12.933-21.2,7.759,7.759,0,0,0,9.99-18.279a8.191,8.191,0,0,0-1.08,4.185A8.046,8.046,0,0,0,9.99-9.936,8.023,8.023,0,0,0,12.933-7.02,8.191,8.191,0,0,0,17.118-5.94ZM45.954.486A12.284,12.284,0,0,1,40.608-.621,8.763,8.763,0,0,1,36.99-3.672a7.892,7.892,0,0,1-1.3-4.482,7.354,7.354,0,0,1,3.051-6.291q3.051-2.241,8.4-2.241a20.774,20.774,0,0,1,6.912,1.134V-17.6a4.476,4.476,0,0,0-1.512-3.672,6.834,6.834,0,0,0-4.428-1.242,14.441,14.441,0,0,0-3.834.567A35.645,35.645,0,0,0,39.528-20.2l-2.7-5.454a37.592,37.592,0,0,1,6.4-2.268,25.4,25.4,0,0,1,6.129-.756q5.67,0,8.829,2.727a9.617,9.617,0,0,1,3.159,7.695V0h-7.29V-2a11.757,11.757,0,0,1-3.726,1.89A15.3,15.3,0,0,1,45.954.486Zm-3.24-8.8a2.942,2.942,0,0,0,1.4,2.565,6.569,6.569,0,0,0,3.726.945,12.051,12.051,0,0,0,3.4-.459,8.883,8.883,0,0,0,2.808-1.377v-4.1a14.794,14.794,0,0,0-2.808-.81,17.2,17.2,0,0,0-3.132-.27,7.151,7.151,0,0,0-3.969.945A2.929,2.929,0,0,0,42.714-8.316ZM79.488.432q-4.7,0-7.1-2.133a7.9,7.9,0,0,1-2.4-6.237v-14.04H64.206v-6.156h5.778v-7.182l7.4-1.674v8.856h8.046v6.156H77.382V-9.45a3.756,3.756,0,0,0,.864,2.781,4.309,4.309,0,0,0,3.024.837,13.213,13.213,0,0,0,1.971-.135,11.042,11.042,0,0,0,1.971-.513v6.1a15.175,15.175,0,0,1-2.835.594A23.515,23.515,0,0,1,79.488.432ZM98.01.486A12.284,12.284,0,0,1,92.664-.621a8.763,8.763,0,0,1-3.618-3.051,7.892,7.892,0,0,1-1.3-4.482A7.354,7.354,0,0,1,90.8-14.445q3.051-2.241,8.4-2.241a20.774,20.774,0,0,1,6.912,1.134V-17.6a4.476,4.476,0,0,0-1.512-3.672,6.834,6.834,0,0,0-4.428-1.242,14.441,14.441,0,0,0-3.834.567A35.644,35.644,0,0,0,91.584-20.2l-2.7-5.454a37.592,37.592,0,0,1,6.4-2.268,25.4,25.4,0,0,1,6.129-.756q5.67,0,8.829,2.727a9.617,9.617,0,0,1,3.159,7.695V0h-7.29V-2a11.757,11.757,0,0,1-3.726,1.89A15.3,15.3,0,0,1,98.01.486Zm-3.24-8.8a2.942,2.942,0,0,0,1.4,2.565,6.569,6.569,0,0,0,3.726.945,12.051,12.051,0,0,0,3.4-.459,8.883,8.883,0,0,0,2.808-1.377v-4.1a14.794,14.794,0,0,0-2.808-.81,17.2,17.2,0,0,0-3.132-.27,7.151,7.151,0,0,0-3.969.945A2.929,2.929,0,0,0,94.77-8.316Z" transform="translate(4.422 47.778)" fill="#1c2748"/><path d="M7.236,0V-21.978H.972v-6.156H7.236v-2.7q0-4.752,2.754-7.263t7.938-2.511q1.134,0,2.322.108a9.964,9.964,0,0,1,2.052.378v6.21q-1.026-.216-1.782-.324a11.892,11.892,0,0,0-1.674-.108,4.793,4.793,0,0,0-3.159.891,3.444,3.444,0,0,0-1.053,2.781v2.538H22.3v6.156H14.634V0ZM26.19,0V-37.8l7.4-1.242V0ZM50.274.54A11.409,11.409,0,0,1,44.523-.891,10.311,10.311,0,0,1,40.581-4.86a11.669,11.669,0,0,1-1.431-5.832V-28.134h7.4v16.362a5.894,5.894,0,0,0,1.593,4.32,5.747,5.747,0,0,0,4.293,1.62,7.435,7.435,0,0,0,3.321-.729A6.531,6.531,0,0,0,58.212-8.64V-28.134h7.4V0h-7.4V-2.268A11.7,11.7,0,0,1,50.274.54Z" transform="translate(120.958 48)" fill="#003afb"/></g></svg>