<svg xmlns="http://www.w3.org/2000/svg" xmlns:xlink="http://www.w3.org/1999/xlink" width="258" height="128" viewBox="0 0 258 128"><defs><linearGradient id="a" x1="0.798" y1="-1.095" x2="-0.054" y2="1.26" gradientUnits="objectBoundingBox"><stop offset="0" stop-color="#b9ffcc"/><stop offset="1" stop-color="#fff" stop-opacity="0.557"/></linearGradient><linearGradient id="b" x1="-0.325" y1="-1.344" x2="0.58" y2="0.971" gradientUnits="objectBoundingBox"><stop offset="0" stop-color="#7f83f8"/><stop offset="1" stop-color="#7f83f8"/></linearGradient><clipPath id="d"><rect width="258" height="128"/></clipPath></defs><g id="c" clip-path="url(#d)"><path d="M0,0H258V29.272L0,101.733Z" fill="#f7fafc"/><path d="M-8.056,4.446l127.19.168,11.884,11.7H1.6Z" transform="translate(-97.264 70.259) rotate(-16)" fill="#7f83f8"/><path d="M0,49.682,258-22.912V76H0Z" transform="translate(0 52)" fill="#fff"/><path d="M-8.056,4.446l72.268.642,7.581,11.223H-2.513Z" transform="translate(-27.264 38.318) rotate(-16)" fill="url(#a)"/><path d="M-8.26,3.563l72.6,1.312,7.453,11.436H-2.513Z" transform="translate(238.198 40.385) rotate(-17)" fill="#b9ffcc"/><path d="M-8.056,4.446l125.87.642,13.2,11.223H1.6Z" transform="translate(205.736 36.591) rotate(-16)" fill="url(#b)"/></g></svg>