<svg xmlns="http://www.w3.org/2000/svg" xmlns:xlink="http://www.w3.org/1999/xlink" width="258" height="128" viewBox="0 0 258 128"><defs><linearGradient id="a" x1="0.798" y1="-1.095" x2="-0.794" y2="-0.174" gradientUnits="objectBoundingBox"><stop offset="0" stop-color="#b9ffcc"/><stop offset="1" stop-color="#fff" stop-opacity="0.557"/></linearGradient><linearGradient id="b" x1="-0.325" y1="-1.344" x2="0.58" y2="0.971" gradientUnits="objectBoundingBox"><stop offset="0" stop-color="#7f83f8"/><stop offset="1" stop-color="#7f83f8"/></linearGradient><linearGradient id="c" x1="0.202" y1="-1.095" x2="1.054" y2="1.26" xlink:href="#a"/><clipPath id="e"><rect width="258" height="128"/></clipPath></defs><g id="d" clip-path="url(#e)"><path d="M0,0H258V29.272L0,101.733Z" fill="#f7fafc"/><path d="M0,49.682,258-22.912V76H0Z" transform="translate(0 52)" fill="#fff"/><path d="M-7.983,4.264l100.732.824,10.575,11.223H-.325Z" transform="translate(190.736 20.1) rotate(-16)" fill="url(#a)"/><path d="M-8.056,4.446l125.87.642,13.2,11.223H1.6Z" transform="translate(-89.729 122.1) rotate(-16)" fill="url(#b)"/><path d="M80.271,3.045.343,3.355l-8.4,12.956h82.39Z" transform="translate(-4.093 111.1) rotate(-16)" fill="url(#c)"/><path d="M-8.056,4.446l127.19.168,11.884,11.7H1.6Z" transform="translate(220.04 22.917) rotate(-16)" fill="#7f83f8"/></g></svg>